# xmcd
#
# Track frame offsets:
#	150
#	25899
#	44163
#	59192
#	74205
#	89594
#	100132
#	116630
#	136366
#	153981
#
# Disc length: 2340 seconds
#
# Revision: 1
# Processed by: cddbd v1.5.2PL0 Copyright (c) Steve Scherf et al.
# Submitted via: EZCDAudioConverter 3.1.5.1
#
DISCID=9c09220a
DTITLE=Πύξ Λάξ - Ο Ήλιος του Χειμώνα με Μελαγχολεί
DYEAR=1993
DGENRE=Έντεχνο
TTITLE0=	Γιατί;
TTITLE1=Άστην Να Λέει
TTITLE2=	Σ' Αγαπώ
TTITLE3=Η Εικόνα Του Χειμώνα
TTITLE4=Το Αργά Για Μας Είναι Νωρίς
TTITLE5=	Για Μια Ματιά
TTITLE6=Χάθηκες Αλήτισσα
TTITLE7=Το Ζεϊμπέκικο Της Αθήνας
TTITLE8=Κόκκινος Στίβος
TTITLE9=	Θα Σε Βαρεθώ
EXTD=
EXTT0=
EXTT1=
EXTT2=
EXTT3=
EXTT4=
EXTT5=
EXTT6=
EXTT7=
EXTT8=
EXTT9=
PLAYORDER=
